PathFileType	4	(X/Y/Z)	D:\TRACE\v60_Jaco2_6-2-23\JustArmDRS_Motion3_3-v60.trc
DataRate	CameraRate	NumFrames	NumMarkers	Units	OrigDataRate	OrigDataStartFrame	OrigNumFrames
100.00	100.00	      31	9	mm	100.00	5251	      7000
Frame#	Time	front left toe			Front right toe			aft left toe			aft right toe			Arm			FL body			FR body			AL Body			AR Body			
		X1	Y1	Z1	X2	Y2	Z2	X3	Y3	Z3	X4	Y4	Z4	X5	Y5	Z5	X6	Y6	Z6	X7	Y7	Z7	X8	Y8	Z8	X9	Y9	Z9	

5251	52.500	-165.23683	1.70066	-244.25580	233.66203	4.24380	-178.51271	-254.53294	42.95053	393.10080	154.68901	40.03272	408.08505	65.11121	1013.33911	-687.36841	-24.43719	555.21521	-364.06973	132.80025	554.55151	-342.40915	-142.81306	610.51434	571.48163	7.03845	601.21454	592.11993	
5252	52.510	-164.99719	1.70708	-244.28731	233.98965	4.10424	-178.48996	-254.21158	43.22132	392.99838	155.36238	40.09676	408.22882	65.48894	1012.82367	-687.96088	-23.37781	554.89807	-363.62955	133.37631	554.43799	-342.47635	-142.33231	610.72241	571.51147	7.89537	601.38220	592.07642	
5253	52.520	-164.80127	1.80887	-244.33751	234.04272	3.91917	-178.54611	-254.03609	43.34848	392.88788	155.83844	40.21577	408.19147	66.11336	1012.32660	-688.15991	-23.36473	555.15924	-364.24023	133.51619	554.42926	-342.52209	-142.05638	610.85516	571.61139	8.09950	601.47003	592.06079	
5254	52.530	-164.35689	1.76776	-244.33110	234.51505	3.85983	-178.40125	-253.70737	43.33679	392.88120	156.42451	40.29806	408.21051	66.32632	1012.01563	-688.55078	-22.93233	555.16864	-364.20551	133.92668	554.34277	-342.54370	-141.74472	610.97614	571.61267	8.47403	601.53357	591.98657	
5255	52.540	-163.63385	1.51688	-244.37160	235.22380	3.77374	-178.25586	-253.06944	43.27873	392.88293	156.63332	40.37843	408.21945	66.95956	1011.61133	-688.97406	-22.49304	555.06451	-364.25403	134.41049	554.28516	-342.70596	-141.28406	610.98895	571.51196	8.77908	601.73499	591.86029	
5256	52.550	-163.09955	1.46719	-244.25813	235.45987	3.66944	-178.34831	-252.59755	43.45108	392.50769	156.78923	40.30659	408.20056	67.44501	1011.29736	-689.14362	-22.00671	554.96619	-364.29221	134.87534	554.31372	-342.76373	-140.63499	611.14392	571.36871	8.97564	601.82440	591.77081	
5257	52.560	-162.91940	1.46909	-244.25499	236.06189	3.72718	-178.27040	-252.02315	43.29999	392.93887	157.00653	40.16516	408.00961	67.72964	1011.13159	-689.28900	-21.51949	554.90729	-364.28516	135.80679	554.14606	-342.79022	-140.39693	611.22571	571.06189	9.50850	601.84119	591.52997	
5258	52.570	-162.72517	1.76640	-244.36890	236.78207	3.94561	-178.17897	-251.87796	43.43090	392.88977	157.62326	40.31530	408.02127	68.17873	1011.00739	-689.46600	-20.81318	554.60980	-363.95276	136.35291	554.06616	-342.91693	-140.18295	611.27448	570.86316	10.20195	601.99658	591.47491	
5259	52.580	-162.34909	1.65722	-244.31685	237.26947	4.12191	-178.04224	-251.50447	43.51532	392.84909	158.22649	40.46691	408.04712	68.63248	1010.86060	-689.52148	-20.34969	554.50421	-364.03293	136.79839	553.95319	-342.92584	-139.81935	611.44916	570.84314	10.52875	602.07538	591.44226	
5260	52.590	-161.70740	1.44954	-244.31630	237.30525	4.04066	-178.21948	-251.08275	43.55463	392.78622	158.79074	40.62804	407.96985	69.00101	1010.73151	-689.60040	-20.08767	554.47009	-364.02698	137.21924	553.90253	-342.89929	-139.28445	611.55243	570.81293	10.83267	602.14606	591.43347	
5261	52.600	-161.27815	1.51370	-244.32344	237.57129	3.91601	-178.43221	-250.62625	43.58940	392.80881	158.93100	40.64955	407.96497	69.40054	1010.73657	-689.72974	-19.49755	554.43817	-363.96008	137.54755	553.93817	-342.88687	-138.71431	611.60675	570.79498	11.29813	602.11487	591.42017	
5262	52.610	-161.03909	1.56588	-244.34331	238.02527	3.96915	-178.48392	-250.02887	43.43818	392.83511	159.19560	40.60599	407.80740	70.06003	1010.72009	-689.78802	-19.06421	554.47418	-363.94867	137.43402	554.04102	-342.71567	-138.16904	611.53088	570.85553	11.53420	602.16766	591.43506	
5263	52.620	-160.66814	1.49419	-244.31767	238.25316	3.86434	-178.51666	-249.63498	43.46474	392.97012	159.45573	40.58403	407.82782	70.57182	1010.71350	-689.69757	-18.62795	554.39398	-364.05716	138.10512	553.98724	-342.64209	-138.05943	611.48181	570.88623	11.94895	602.21277	591.48560	
5264	52.630	-160.07635	1.09939	-244.41463	238.38301	3.76892	-178.63412	-249.43994	43.40840	393.03391	159.74619	40.58002	407.84543	70.95738	1010.67200	-689.62268	-18.35866	554.42029	-364.09711	138.47192	553.95282	-342.55103	-137.88733	611.47119	570.88257	12.42463	602.23083	591.53833	
5265	52.640	-159.70850	1.43478	-244.36186	238.68333	3.74878	-178.66690	-249.14751	43.44036	393.00516	160.25282	40.50021	407.92200	71.34959	1010.63434	-689.59973	-18.34886	554.61188	-364.49033	138.92145	553.98157	-342.51529	-137.67593	611.49353	570.91962	12.73573	602.24597	591.60883	
5266	52.650	-159.31839	1.54815	-244.40907	239.34550	3.89658	-178.59091	-248.72588	43.31370	393.07983	160.99138	40.36380	408.07855	71.85054	1010.54321	-689.66791	-17.86316	554.76190	-364.36731	139.13438	553.94226	-342.49875	-137.30318	611.59235	570.93176	12.97538	602.38409	591.75061	
5267	52.660	-159.07190	1.64910	-244.35574	239.92715	3.93894	-178.56290	-248.30774	43.20906	392.99591	161.37206	40.39688	408.13132	72.08614	1010.53882	-689.68799	-17.33822	554.81250	-364.27744	139.63878	553.92749	-342.50290	-136.86035	611.76227	570.96527	13.21200	602.52667	591.84558	
5268	52.670	-158.79897	1.76463	-244.27448	240.19861	3.83287	-178.61436	-247.95555	43.19283	393.02057	161.66615	40.23892	408.07651	72.30936	1010.54388	-689.70660	-17.01063	554.81555	-364.23602	140.10808	553.85486	-342.40451	-136.44810	611.86230	571.00574	13.59250	602.64545	591.86523	
5269	52.680	-158.49028	1.92724	-244.23712	240.69266	3.85858	-178.46359	-247.48206	43.06494	393.11456	161.96022	40.08570	408.00833	72.83146	1010.54498	-689.77966	-16.18780	554.44885	-363.78845	140.61301	553.88483	-342.37268	-136.03423	612.22009	571.10785	13.94854	602.87646	591.86688	
5270	52.690	-158.02322	1.85379	-244.23808	241.12003	3.83564	-178.34593	-247.20602	43.07436	393.06287	162.23106	40.06012	408.02963	73.17989	1010.49646	-689.90900	-15.86546	554.45087	-363.80869	140.80511	553.89014	-342.41736	-135.76152	612.34094	571.19977	14.14643	603.29535	591.81348	
5271	52.700	-157.73993	1.84993	-244.22842	241.33492	3.82173	-178.26707	-246.46623	42.87609	393.00500	162.41986	40.00283	408.01578	73.70998	1010.36761	-690.06976	-15.47561	554.49054	-363.80444	141.07898	553.90179	-342.42847	-135.25223	612.52643	571.31665	14.93750	603.23126	591.97382	
5272	52.710	-157.35431	1.84607	-244.14151	241.63902	3.87010	-178.17741	-246.41403	43.00894	393.08832	162.92955	40.10394	408.13635	74.25705	1010.21179	-690.13074	-15.01978	554.47900	-363.79074	141.63620	553.87708	-342.33929	-134.76010	612.67236	571.30920	15.27435	603.38995	592.07581	
5273	52.720	-156.93802	1.94603	-244.17421	242.10275	4.03733	-178.03130	-246.08212	43.01209	393.01434	163.25742	40.14305	408.20944	74.89079	1010.04156	-690.07410	-14.58084	554.51935	-363.73096	142.13286	553.90100	-342.29218	-134.49629	612.74628	571.30811	15.58877	603.45538	592.08002	
5274	52.730	-156.63750	1.98657	-244.18132	242.69994	4.16778	-177.95547	-245.78510	42.93227	393.08420	163.73042	40.18099	408.18579	75.28987	1010.03833	-689.98706	-14.72391	554.90967	-364.24176	142.59827	553.92273	-342.27655	-134.27122	612.73816	571.26569	15.75975	603.51337	592.03107	
5275	52.740	-156.24577	2.00435	-244.11043	242.95601	4.15447	-177.90956	-245.64612	42.99868	393.06943	164.02832	40.16848	408.18411	75.75768	1010.06775	-689.95605	-14.46532	554.92822	-364.21323	142.78033	553.96124	-342.33438	-133.88438	612.77368	571.23914	15.94655	603.47968	592.01697	
5276	52.750	-155.81096	1.99901	-244.05991	242.95648	4.14587	-177.93468	-245.36504	42.97144	393.12347	164.38965	40.07462	408.24255	76.02679	1010.25452	-689.98859	-14.04091	554.86816	-364.15680	143.57397	553.88074	-342.35416	-133.66190	612.64209	571.25671	16.23455	603.45020	591.92822	
5277	52.760	-155.58852	2.13548	-244.02840	243.23386	4.17647	-177.91763	-244.94301	42.76844	393.15375	164.71506	39.83172	408.31528	76.40742	1010.46539	-689.82306	-13.52367	554.99762	-364.09998	144.11317	553.94006	-342.30389	-133.28401	612.53186	571.23010	16.75225	603.25507	591.92041	
5278	52.770	-155.19046	1.99278	-243.91035	243.65302	4.24222	-177.84392	-244.24606	42.46734	393.17227	164.95486	39.56006	408.28522	76.74471	1010.68787	-689.60406	-13.02660	555.05261	-364.02036	144.68279	553.96863	-342.25760	-132.67310	612.37439	571.25836	17.32952	602.94275	592.05621	
5279	52.780	-154.81180	2.07141	-243.89531	244.19768	4.41847	-177.75957	-243.94751	42.44095	393.22141	165.28021	39.44954	408.38257	77.27433	1010.91687	-689.45575	-12.53296	554.93323	-363.77139	144.94833	553.96661	-342.20627	-132.28616	612.29443	571.31122	17.63453	602.90887	592.14630	
5280	52.790	-154.83081	2.50388	-243.99802	244.52364	4.50625	-177.77121	-243.65956	42.32967	393.24872	165.76445	39.44426	408.52075	77.86232	1010.97296	-689.29187	-12.01860	554.92682	-363.52045	145.04842	553.99011	-342.18289	-132.05545	612.27496	571.41510	17.87725	602.88843	592.31989	
5281	52.800	-154.33653	2.52580	-243.84435	244.97379	4.69504	-177.58516	-243.48138	42.27049	393.24457	166.40187	39.49215	408.59113	78.33311	1011.07751	-689.05737	-11.62865	554.99719	-363.28580	145.35175	554.08813	-342.06912	-131.72044	612.27478	571.60339	18.25953	602.81244	592.44299	
